<svg width="26" height="24" xmlns="http://www.w3.org/2000/svg">
 <title>Google Play icon</title>

 <g>
  <title>background</title>
  <rect fill="none" id="canvas_background" height="26" width="28" y="-1" x="-1"/>
 </g>
 <g>
  <title>Layer 1</title>
  <path transform="rotate(-90 12.999999046325685,12) " fill="#07e064" id="svg_1" d="m2.220211,0c-0.03,0.093 -0.06,0.185 -0.06,0.308l0,23.229c0,0.217 0.061,0.34 0.184,0.463l11.415,-12.093l-11.539,-11.907zm12.309,12.708l2.951,3.045l-4.213,2.4s-5.355,3.044 -8.308,4.739l9.57,-10.184zm0.801,-0.831l3.166,3.292c0.496,-0.276 4.371,-2.492 4.924,-2.8c0.584,-0.338 0.525,-0.8 0.029,-1.046c-0.459,-0.255 -4.334,-2.475 -4.92,-2.835l-3.203,3.392l0.004,-0.003zm-0.803,-0.8l2.984,-3.169l-4.259,-2.431s-6.943,-3.972 -9.253,-5.298l10.53,10.898l-0.002,0z"/>
 </g>
</svg>